<?xml version="1.0" standalone="no"?>
<svg viewBox="0 0 200 200" xmlns="http://www.w3.org/2000/svg">
  <path fill="#BD72FD" d="M28.8,-40.9C34.8,-40.9,35.5,-28.7,45.5,-17.6C55.4,-6.5,74.7,3.5,79.3,15.5C83.9,27.4,73.9,41.3,60.2,45.9C46.5,50.5,29.3,45.7,15.1,48.7C0.8,51.7,-10.3,62.5,-24.3,66C-38.2,69.5,-54.9,65.8,-59.1,54.7C-63.4,43.6,-55.2,25.2,-51,11.3C-46.8,-2.6,-46.6,-11.9,-45.8,-24C-45.1,-36.2,-43.8,-51.1,-36.1,-50.4C-28.3,-49.6,-14.2,-33.1,-1.4,-30.9C11.4,-28.8,22.7,-40.9,28.8,-40.9Z" transform="translate(100 100)" />
</svg>
